# xmcd
#
# Track frame offsets: 
#        150
#        11601
#        21593
#        35069
#        47130
#        59253
#        69941
#        83516
#        95268
#        107707
#        118310
#        129844
#        142958
#        153725
#        164141
#        174647
#        185055
#        195767
#        206923
#        216877
#        227777
#        237183
#        247952
#        258865
#        271966
#        283610
#
# Disc length: 3966 seconds
#
# Revision: 0
# Processed by: cddbd v1.5.2PL0 Copyright (c) Steve Scherf et al.
# Submitted via: ExactAudioCopy v0.99pb4
#
DISCID=780f7c1a
DTITLE=Various Artist - The Best of Country Music
DYEAR=2003
DGENRE=Country
TTITLE0=The Kendalls - Heaven's Just A Sin Away
TTITLE1=The Kendalls - I Had A Lovely Time
TTITLE2=The Kendalls - The Pittsburg Stealers
TTITLE3=The Kendalls - It Don't Feel Like Sinnin' To Me
TTITLE4=The Kendalls - Sweet Desire
TTITLE5=The Kendalls - You'd Make An Angel Want To Cheat
TTITLE6=The Kendalls - Thank God For The Radio
TTITLE7=Patsy Cline - Walkin' After Midnight
TTITLE8=Patsy Cline - A Poor Man's Roses For A Rich Man's Gold
TTITLE9=Patsy Cline - Lovesick Blues
TTITLE10=Patsy Cline - Crazy Dreams
TTITLE11=Patsy Cline - Life's A Railway To Heaven
TTITLE12=Patsy Cline - Honky Tonk Merry Go Round
TTITLE13=Patsy Cline - How Can I Face Tomorrow
TTITLE14=Patsy Cline - I Love You Honey
TTITLE15=Patsy Cline - Pick Me Up On Your Way Down
TTITLE16=Patsy Cline - Gotta Lot Of Rhythm In My Soul
TTITLE17=Patsy Cline - Hidin' Out
TTITLE18=Patsy Cline - Turn The Cards Slowly
TTITLE19=Patsy Cline - I Cried All The Way To The Altar
TTITLE20=Patsy Cline - Love Me Honey Do
TTITLE21=Patsy Cline - I Can See An Angel Walkin'
TTITLE22=Patsy Cline - I Don't Wanna
TTITLE23=Patsy Cline - I Could See The World (Through The Eyes Of A Ch
TTITLE23=ild)
TTITLE24=Patsy Cline - Lonely Street
TTITLE25=Patsy Cline - A Church, A Courtroom, And Then Goodbye
EXTD=
EXTT0=
EXTT1=
EXTT2=
EXTT3=
EXTT4=
EXTT5=
EXTT6=
EXTT7=
EXTT8=
EXTT9=
EXTT10=
EXTT11=
EXTT12=
EXTT13=
EXTT14=
EXTT15=
EXTT16=
EXTT17=
EXTT18=
EXTT19=
EXTT20=
EXTT21=
EXTT22=
EXTT23=
EXTT24=
EXTT25=
PLAYORDER=
